<svg width="50" height="50" viewBox="0 0 50 50" fill="none" xmlns="http://www.w3.org/2000/svg">
<path fill-rule="evenodd" clip-rule="evenodd" d="M43.75 25C43.75 35.3553 35.3553 43.75 25 43.75C14.6447 43.75 6.25 35.3553 6.25 25C6.25 14.6447 14.6447 6.25 25 6.25C35.3553 6.25 43.75 14.6447 43.75 25ZM27.0833 37.5C27.0833 38.6506 26.1506 39.5833 25 39.5833C23.8494 39.5833 22.9167 38.6506 22.9167 37.5C22.9167 36.3494 23.8494 35.4167 25 35.4167C26.1506 35.4167 27.0833 36.3494 27.0833 37.5ZM25 11.5C20.9959 11.5 17.75 14.7459 17.75 18.75H19.75C19.75 15.8505 22.1005 13.5 25 13.5H25.1965C27.9875 13.5 30.25 15.7625 30.25 18.5535V19.6226C30.25 21.1594 29.2666 22.5237 27.8088 23.0097C25.5342 23.7678 24 25.8964 24 28.294V33.3333H26V28.294C26 26.7573 26.9834 25.393 28.4412 24.907C30.7158 24.1488 32.25 22.0202 32.25 19.6226V18.5535C32.25 14.658 29.092 11.5 25.1965 11.5H25Z" fill="white"/>
</svg>
