<svg width="50" height="50" viewBox="0 0 50 50" fill="none" xmlns="http://www.w3.org/2000/svg">
<path fill-rule="evenodd" clip-rule="evenodd" d="M29.3467 5.96766V5.96768L29.6635 9.13566C29.8269 10.7692 29.9086 11.586 30.4614 11.8149C31.0142 12.0439 31.6495 11.5241 32.9201 10.4846L35.3841 8.46851C36.0499 7.92379 36.3828 7.65144 36.7676 7.67063C37.1525 7.68983 37.4566 7.99395 38.0648 8.60221L41.3977 11.9351C42.006 12.5433 42.3101 12.8475 42.3293 13.2323C42.3485 13.6171 42.0761 13.95 41.5314 14.6158L39.5153 17.0799C38.4757 18.3505 37.9559 18.9858 38.1849 19.5386C38.4139 20.0914 39.2307 20.1731 40.8642 20.3364L44.0323 20.6533C44.8882 20.7388 45.3162 20.7816 45.5747 21.0673C45.8333 21.353 45.8333 21.7831 45.8333 22.6433V27.3567C45.8333 28.2169 45.8333 28.647 45.5747 28.9327C45.3162 29.2184 44.8882 29.2612 44.0323 29.3468L40.865 29.6635C39.2315 29.8269 38.4147 29.9085 38.1857 30.4614C37.9567 31.0142 38.4765 31.6495 39.5161 32.9201L41.5315 35.3834C42.0762 36.0491 42.3486 36.382 42.3294 36.7668C42.3102 37.1517 42.0061 37.4558 41.3978 38.064L38.0649 41.3969C37.4567 42.0052 37.1526 42.3093 36.7677 42.3285C36.3829 42.3477 36.05 42.0753 35.3842 41.5306L32.9202 39.5145C31.6496 38.475 31.0143 37.9552 30.4615 38.1842C29.9087 38.4132 29.827 39.2299 29.6636 40.8635L29.3467 44.0324C29.2611 44.8883 29.2183 45.3163 28.9326 45.5748C28.647 45.8334 28.2169 45.8334 27.3567 45.8334H22.6433C21.7831 45.8334 21.353 45.8334 21.0673 45.5748C20.7816 45.3163 20.7388 44.8883 20.6532 44.0324L20.3364 40.8643C20.173 39.2307 20.0914 38.414 19.5385 38.185C18.9857 37.956 18.3504 38.4758 17.0798 39.5154L14.6156 41.5316C13.9499 42.0763 13.617 42.3486 13.2321 42.3294C12.8473 42.3102 12.5432 42.0061 11.9349 41.3979L8.60205 38.065C7.9938 37.4567 7.68967 37.1526 7.67048 36.7678C7.65129 36.3829 7.92364 36.0501 8.46835 35.3843L10.4845 32.9201C11.5241 31.6495 12.0439 31.0142 11.8149 30.4614C11.5859 29.9086 10.7691 29.8269 9.13558 29.6636L5.96762 29.3468H5.9676C5.11168 29.2612 4.68372 29.2184 4.42517 28.9327C4.16663 28.647 4.16663 28.2169 4.16663 27.3567V22.6433C4.16663 21.7831 4.16663 21.353 4.42517 21.0673C4.68372 20.7816 5.11168 20.7388 5.9676 20.6533H5.96762L9.13637 20.3364C10.7699 20.173 11.5867 20.0913 11.8157 19.5385C12.0446 18.9857 11.5249 18.3504 10.4853 17.0798L8.46845 14.6148C7.92374 13.9491 7.65138 13.6162 7.67058 13.2313C7.68977 12.8465 7.9939 12.5424 8.60215 11.9341L11.935 8.60126C12.5433 7.99301 12.8474 7.68888 13.2322 7.66969C13.6171 7.65049 13.9499 7.92285 14.6157 8.46756L17.0799 10.4837C18.3505 11.5233 18.9858 12.0431 19.5386 11.8141C20.0915 11.5851 20.1731 10.7684 20.3365 9.13484L20.6532 5.96768V5.96766C20.7388 5.11174 20.7816 4.68378 21.0673 4.42523C21.353 4.16669 21.7831 4.16669 22.6433 4.16669H27.3567C28.2169 4.16669 28.647 4.16669 28.9326 4.42523C29.2183 4.68378 29.2611 5.11174 29.3467 5.96766ZM25 33.3334C29.6023 33.3334 33.3333 29.6024 33.3333 25C33.3333 20.3976 29.6023 16.6667 25 16.6667C20.3976 16.6667 16.6666 20.3976 16.6666 25C16.6666 29.6024 20.3976 33.3334 25 33.3334Z" fill="white"/>
</svg>
