<svg width="50" height="50" viewBox="0 0 50 50" fill="none" xmlns="http://www.w3.org/2000/svg">
<path fill-rule="evenodd" clip-rule="evenodd" d="M19.2535 9.35047C12.8801 11.6915 8.33325 17.8147 8.33325 25C8.33325 25.9712 8.41633 26.9231 8.57577 27.8488L23.1628 23.9402L19.2535 9.35047ZM22.1517 8.57573L26.19 23.6467L26.2016 23.6901C26.2516 23.8758 26.3221 24.1378 26.3531 24.3779C26.3921 24.6806 26.4013 25.1594 26.1196 25.6473C25.8379 26.1352 25.4187 26.3667 25.137 26.4843C24.9135 26.5775 24.6514 26.6474 24.4656 26.697L24.4222 26.7086L9.35062 30.747C11.6918 37.1201 17.8149 41.6666 24.9999 41.6666C34.2047 41.6666 41.6666 34.2047 41.6666 25C41.6666 15.7952 34.2047 8.33331 24.9999 8.33331C24.0289 8.33331 23.0772 8.41636 22.1517 8.57573Z" fill="white"/>
<path d="M20.1255 6.80842C19.8774 5.88237 19.7533 5.41935 19.3598 5.21669C18.9663 5.01402 18.5455 5.17137 17.7038 5.48607C15.7738 6.20769 13.958 7.21298 12.3174 8.47183C10.1469 10.1373 8.3257 12.214 6.95776 14.5834C5.58983 16.9527 4.70196 19.5683 4.34486 22.2807C4.07495 24.3309 4.11225 26.4061 4.45231 28.4384C4.60062 29.3246 4.67477 29.7678 5.04703 30.0072C5.41929 30.2466 5.88231 30.1226 6.80836 29.8744L23.0681 25.5177C23.9788 25.2736 24.4341 25.1516 24.6412 24.7929C24.8483 24.4342 24.7263 23.9789 24.4823 23.0682L20.1255 6.80842Z" fill="white"/>
</svg>
